<?xml version="1.0" encoding="UTF-8"?>
<svg width="18px" height="18px" viewBox="0 0 18 18" version="1.1" xmlns="http://www.w3.org/2000/svg" xmlns:xlink="http://www.w3.org/1999/xlink">
    <!-- Generator: Sketch 54.1 (76490) - https://sketchapp.com -->
    <title>Bits/Icons/Icon-liberty-pass</title>
    <desc>Created with Sketch.</desc>
    <defs>
        <path d="M17.1851792,13.4760648 C17.2012766,13.5461269 17.2151065,13.6321641 17.2280629,13.736773 C17.2491506,13.9070329 17.2680141,14.1283486 17.2851086,14.3904021 C17.2987585,14.5996501 17.3105209,14.8231 17.3204029,15.0464457 C17.3263301,15.1804084 17.3303237,15.284821 17.3326145,15.360308 C17.3326145,16.4342246 14.2519525,16.8539485 8.91630725,16.8539485 C8.61806792,16.8539485 8.31651099,16.8523143 8.009546,16.8491216 L7.72996095,16.8462136 L7.28870271,16.1470241 C7.29572021,16.1665586 7.3016949,16.1831625 7.30612518,16.1952095 L7.54540241,16.8458599 L6.82019367,16.8266878 C2.57326009,16.7144126 0.5,16.3369512 0.50025682,15.3450857 C0.502290822,15.284821 0.506284449,15.1804084 0.51221164,15.0464457 C0.522093588,14.8231 0.533856039,14.5996501 0.547505896,14.3904021 C0.564600415,14.1283486 0.583463921,13.9070329 0.604551597,13.736773 C0.617508015,13.6321641 0.631337877,13.5461269 0.647435277,13.4760648 C0.686802543,13.3047232 0.718789999,13.213308 0.836723444,13.1260766 C2.09887694,11.7001857 2.89280678,10.2834955 3.31176745,8.92709264 C3.58403388,8.04561855 3.65983086,7.33507187 3.63175084,6.85086187 C3.6288448,6.80911268 3.6288448,6.80911268 3.62600349,6.75944537 C3.62600349,5.17429705 6.02928014,4.05659778 8.91630725,4.05659778 C11.8034113,4.05659778 14.2069962,5.17431622 14.2041856,6.80973918 C14.2041546,6.80911491 14.2041546,6.80911491 14.2012479,6.85087448 C14.1731667,7.33510267 14.2489523,8.04566093 14.5211855,8.92714077 C14.9400896,10.2835347 15.733916,11.700212 16.9959059,13.1260876 C17.1138272,13.2133157 17.1458136,13.3047304 17.1851792,13.4760648 Z M7.21651661,15.2871234 L7.15731139,15.2321671 L7.15731139,15.8370674 C7.15731139,15.8051246 7.18464394,15.8675472 7.21651661,15.9504307 L7.21651661,15.2871234 Z M13.5616324,9.19459222 C13.2559209,8.20471112 13.168664,7.38659821 13.202762,6.79861631 C13.2051368,6.7640973 13.2062802,6.74747637 13.2067826,6.74329333 C13.1837829,5.87298198 11.3059847,5.00659778 8.91630725,5.00659778 C6.51191674,5.00659778 4.62600349,5.88368526 4.62319285,6.70915155 C4.62565732,6.73203938 4.62565732,6.73203938 4.63023673,6.79860387 C4.6643342,7.38657834 4.57706274,8.20469067 4.27131074,9.19457572 C3.81523502,10.6711402 2.95988116,12.1996925 1.6159107,13.7218577 C1.61015017,13.7548196 1.60394621,13.7973586 1.59770037,13.847787 C1.57918518,13.9972769 1.56164379,14.2030808 1.54559119,14.4491621 C1.532399,14.6513942 1.52095387,14.8688159 1.51132943,15.0863417 C1.50692884,15.1858011 1.50363146,15.2682961 1.50156878,15.320557 C1.49973083,15.2493582 1.50779852,15.2495278 1.56557234,15.2760208 C1.75704983,15.3638254 2.07550861,15.4518063 2.50887054,15.530705 C3.35441636,15.6846466 4.58301118,15.7958987 6.1574847,15.8550584 C6.15740188,15.8511529 6.1573441,15.6401527 6.15731139,15.2220579 L5.57253575,14.6754591 L6.31739975,13.1715505 C6.34378602,12.9959619 6.37927801,12.7576856 6.41474872,12.5154501 L6.41972458,12.4814382 C6.47149039,12.1272704 6.51821149,11.7885355 6.51821149,11.7882115 C6.51821149,11.7838412 6.43943406,11.149736 6.35165502,10.4650842 L6.34740329,10.4319305 C6.30926439,10.1346126 6.26839546,9.81801945 6.22752575,9.50275823 C6.18392925,9.16690916 6.18392925,9.16690916 6.1730404,9.08336032 L7.15052601,8.89621878 C7.17737128,8.98676548 7.22427264,9.14527375 7.2845838,9.34964087 C7.38510402,9.69025822 7.48562755,10.0321444 7.57947215,10.3530762 C7.84229185,11.2522195 7.99048231,11.7716966 8.01475977,11.8906034 C8.03448139,11.987056 8.06582851,12.1850864 8.10770283,12.4695337 C8.11253227,12.5023865 8.11253227,12.5023865 8.11734604,12.5353093 C8.15402931,12.7865129 8.18924007,13.0373062 8.21229979,13.2049141 L8.22928898,13.3283988 L7.75148994,14.4555028 L8.21651661,14.8871559 L8.21651661,15.7696791 L8.29980782,15.901657 C8.50739165,15.9031766 8.7126632,15.9039485 8.91630725,15.9039485 C11.3087232,15.9039485 13.2987332,15.7989908 14.6823169,15.6104848 C15.3224969,15.5232636 15.8134329,15.4202871 16.1284916,15.3108044 C16.212415,15.281641 16.2792153,15.2535135 16.3273361,15.2288766 C16.3256291,15.186749 16.3236112,15.1389154 16.3212851,15.0863417 C16.3116606,14.8688159 16.3002155,14.6513942 16.2870233,14.4491621 C16.2709707,14.2030808 16.2534293,13.9972769 16.2349141,13.847787 C16.2281115,13.7928631 16.2213586,13.7472979 16.2151741,13.713272 C14.8745107,12.2025804 14.0180778,10.6725433 13.5616324,9.19459222 Z M16.2151741,13.713272 C16.2127451,13.6999081 16.2104038,13.6883243 16.2081816,13.6786525 C16.2089381,13.6819451 16.2096806,13.6851532 16.2104161,13.6882827 L16.2151741,13.713272 Z M16.3728915,15.2031565 C16.3792232,15.1991253 16.384892,15.1952454 16.3898881,15.1915325 C16.3881838,15.192799 16.3863692,15.1943435 16.3844742,15.1961752 L16.3728915,15.2031565 Z M1.50156878,15.320557 C1.50092378,15.3368989 1.50039952,15.3502845 1.5,15.360308 C1.5,15.3328706 1.49923379,15.3116421 1.49936005,15.2958208 L1.50156878,15.320557 Z M1.62024029,13.6964814 C1.62161913,13.6908147 1.62300094,13.6848849 1.62443289,13.6786525 C1.62371269,13.6817871 1.62297998,13.6851225 1.62223582,13.6886543 L1.62024029,13.6964814 Z M15.8584007,2.04975241 L10.0247585,2.04975241 L10.0247585,1.20659778 L7.9919651,1.20659778 L7.9919651,2.04975241 L2.15832291,2.04975241 L1.64434345,3.95448203 L4.5034979,3.95448203 L4.88866344,3.18330402 L13.1280602,3.18330402 L13.5132257,3.95448203 L16.3723802,3.95448203 L15.8584007,2.04975241 Z M11.0247585,1.09975241 L16.6343844,1.09975241 L17.6610671,4.90448203 L12.8808483,4.90448203 L12.4956828,4.13330402 L5.52104087,4.13330402 L5.13587533,4.90448203 L0.355656554,4.90448203 L1.38233923,1.09975241 L6.9919651,1.09975241 L6.9919651,0.256597785 L11.0247585,0.256597785 L11.0247585,1.09975241 Z" id="path-1"></path>
    </defs>
    <g id="BRUNER-DYNAMICS-Plans" stroke="none" stroke-width="1" fill="none" fill-rule="evenodd">
        <g id="Bruner-Dynamics-Desktop" transform="translate(-565.000000, -739.000000)">
            <g id="Components/desktop/package-cards/unlimited-basic" transform="translate(-10.000000, 443.000000)">
                <g id="Packages-Full-Data">
                    <g id="CONTENT" transform="translate(285.000000, 79.953544)">
                        <g id="LIBERTY-12" transform="translate(259.000000, 65.905516)">
                            <g id="LIBERTY-PASS" transform="translate(30.000000, 145.000000)">
                                <g id="Bits/Icons/Icon-liberty-pass" transform="translate(0.000000, 4.795973)">
                                    <g id="Icon-_Placeholder">
                                        <path d="M0,0 L20,0 L20,19 L0,19 L0,0 Z" id="Bounds"></path>
                                        <g id="IconColor" transform="translate(1.000000, 0.950000)">
                                            <mask id="mask-2" fill="white">
                                                <use xlink:href="#path-1"></use>
                                            </mask>
                                            <use id="Mask" fill="#013064" fill-rule="nonzero" xlink:href="#path-1"></use>
                                            <g id="Bits/Colors/Charcoal" mask="url(#mask-2)" fill="#202E39">
                                                <g transform="translate(-1.000000, -0.950000)" id="Rectangle">
                                                    <rect x="0" y="0" width="20" height="19"></rect>
                                                </g>
                                            </g>
                                        </g>
                                    </g>
                                </g>
                            </g>
                        </g>
                    </g>
                </g>
            </g>
        </g>
    </g>
</svg>