<?xml version="1.0" encoding="UTF-8"?>
<svg width="20px" height="15px" viewBox="0 0 20 15" version="1.1" xmlns="http://www.w3.org/2000/svg" xmlns:xlink="http://www.w3.org/1999/xlink">
    <!-- Generator: Sketch 54.1 (76490) - https://sketchapp.com -->
    <title>Bits/Icons/Icon-video-streaming</title>
    <desc>Created with Sketch.</desc>
    <defs>
        <filter x="-9.9%" y="-5.3%" width="119.8%" height="114.2%" filterUnits="objectBoundingBox" id="filter-1">
            <feOffset dx="0" dy="2" in="SourceAlpha" result="shadowOffsetOuter1"></feOffset>
            <feGaussianBlur stdDeviation="2" in="shadowOffsetOuter1" result="shadowBlurOuter1"></feGaussianBlur>
            <feColorMatrix values="0 0 0 0 0.846665534   0 0 0 0 0.846665534   0 0 0 0 0.846665534  0 0 0 1 0" type="matrix" in="shadowBlurOuter1" result="shadowMatrixOuter1"></feColorMatrix>
            <feMerge>
                <feMergeNode in="shadowMatrixOuter1"></feMergeNode>
                <feMergeNode in="SourceGraphic"></feMergeNode>
            </feMerge>
        </filter>
        <polygon id="path-2" points="0 0 273 0 273 378.648322 0 378.648322"></polygon>
        <filter x="-9.5%" y="-5.0%" width="119.0%" height="113.7%" filterUnits="objectBoundingBox" id="filter-4">
            <feOffset dx="0" dy="7" in="SourceAlpha" result="shadowOffsetOuter1"></feOffset>
            <feGaussianBlur stdDeviation="7.5" in="shadowOffsetOuter1" result="shadowBlurOuter1"></feGaussianBlur>
            <feColorMatrix values="0 0 0 0 0   0 0 0 0 0   0 0 0 0 0  0 0 0 0.25 0" type="matrix" in="shadowBlurOuter1"></feColorMatrix>
        </filter>
        <path d="M5.92549262,7.38782403 C6.44104297,7.86447013 6.75698705,8.30863826 6.92849128,8.79007508 C7.08219654,9.22154763 7.10892296,9.53843782 7.10883034,10.3300019 L7.10883279,14.3191704 C7.10883313,14.5953004 6.87320416,14.8191482 6.58254097,14.8191482 L2.80366504,14.8191482 C2.46743082,14.8191482 2.21742392,14.5237143 2.2896636,14.2117512 L2.69780732,12.450285 C2.80008404,12.0649533 2.73928499,11.6990573 2.57265805,11.3677712 C2.50807993,11.2393776 2.44673316,11.1517405 2.40607637,11.1046822 L0.503110881,8.77910882 C0.424880394,8.69105961 0.326682965,8.54677775 0.234062509,8.3470055 C0.00169263443,7.84580896 -0.076712792,7.2385393 0.0861912145,6.52643713 C0.282962244,5.80228429 1.05832109,2.94794139 1.43328946,1.56906797 C1.52671241,1.15513837 1.78717091,0.856630652 2.14334303,0.676721265 C2.4023927,0.545870296 2.65138531,0.49909448 2.85792195,0.493293874 L3.3394521,0.493293874 C3.65514294,0.493293874 3.89980628,0.755492008 3.86194529,1.05323366 C3.84318334,1.20077907 3.81032463,1.46086405 3.76807046,1.79819968 C3.69764623,2.36043057 3.62722376,2.92937497 3.56150928,3.46969979 C3.55075801,3.55816138 3.55075801,3.55816138 3.54002393,3.64673836 C3.48647511,4.0889563 3.43948664,4.48443213 3.40014646,4.82479084 L5.92549262,7.38782403 Z M3.26544738,6.15111579 C3.25937021,6.42871638 3.32007904,6.66377386 3.42426181,6.85995045 C3.47889317,6.96282152 3.52755597,7.02476182 3.58605937,7.08628858 L4.65331761,8.3959766 L3.82099734,9.00810052 L2.79432293,7.74259728 C2.70448457,7.65565458 2.59151048,7.51185587 2.48450494,7.310364 C2.28475771,6.93423913 2.18103403,6.48614392 2.22085121,5.97548866 C2.24905149,5.61335012 2.34663089,4.75224669 2.4943366,3.53246038 C2.50510141,3.44362981 2.50510141,3.44362981 2.51588173,3.35492928 C2.58174827,2.81335408 2.65230544,2.24332148 2.72286088,1.68004309 C2.72990364,1.62381729 2.73668619,1.56973109 2.7431869,1.51794681 C2.70903406,1.52821467 2.6725299,1.54193493 2.63749751,1.55963046 C2.54168548,1.60802696 2.48680842,1.67092076 2.45748714,1.79880116 C2.07751555,3.19780217 1.30214846,6.05217541 1.11012391,6.75732745 C1.00084228,7.23624334 1.05163624,7.62965525 1.19734872,7.94394122 C1.24691614,8.05085276 1.29090659,8.1154881 1.32075824,8.14971002 L3.2271146,10.4791389 C3.30934713,10.5736022 3.41748532,10.7280833 3.52239216,10.9366581 C3.78741602,11.4635761 3.88667801,12.0609466 3.72212714,12.6799496 L3.45831825,13.8191938 L6.05624854,13.8191938 L6.05624427,10.3614063 C6.0563265,9.64797678 6.03568239,9.40320338 5.93145542,9.11062342 C5.81744281,8.79057379 5.59446832,8.47710642 5.17425766,8.08785245 L3.26544738,6.15111579 Z M16.4586953,3.64671637 C16.4481267,3.5594688 16.4481267,3.5594688 16.4375417,3.4723315 C16.3718092,2.9315755 16.3013676,2.36203337 16.2309243,1.79911337 C16.1886586,1.46136407 16.1557909,1.20092607 16.1370235,1.05316405 C16.09921,0.755445254 16.3438643,0.493293874 16.6595255,0.493293874 L17.1572416,0.493530382 C17.3475923,0.49909448 17.596585,0.545870296 17.8556346,0.676721265 C18.2118067,0.856630652 18.4722652,1.15513837 18.560748,1.54917268 C18.6983136,2.05653371 18.9047371,2.8167674 19.168974,3.78935324 C19.3874066,4.59334497 19.6380788,5.51568976 19.9175985,6.54571741 C20.0753251,7.23855343 19.996946,7.84561578 19.764884,8.34668132 C19.6723376,8.54650648 19.5742158,8.69083144 19.509157,8.76352696 L17.5830019,11.1164084 C17.5522445,11.1517405 17.4908977,11.2393776 17.4263196,11.3677712 C17.2596927,11.6990573 17.1988936,12.0649533 17.3048534,12.4651101 L17.709314,14.2117512 C17.7815537,14.5237143 17.5315468,14.8191482 17.1953126,14.8191482 L13.4164391,14.8191482 C13.125776,14.8191482 12.8901471,14.5953006 12.8901473,14.3191707 L12.8901497,10.3614063 C12.8900547,9.53843782 12.9167811,9.22154763 13.0704864,8.79007508 C13.2419906,8.30863826 13.5579347,7.86447013 14.0563618,7.40440816 L16.5985896,4.82498692 C16.5592279,4.48457408 16.5122346,4.089028 16.4586953,3.64671637 Z M14.8075968,8.10443659 C14.4045093,8.47710642 14.1815348,8.79057379 14.0675222,9.11062342 C13.9632953,9.40320338 13.9426511,9.64797678 13.9427309,10.3298907 L13.9427307,13.8191938 L16.5407471,13.8191938 L16.2805336,12.6947747 C16.1122996,12.0609466 16.2115616,11.4635761 16.4765855,10.9366581 C16.5814923,10.7280833 16.6896305,10.5736022 16.7619637,10.4908652 L18.6913299,8.13433057 C18.7078953,8.11566598 18.7518757,8.0509763 18.8014313,7.94397626 C18.9470335,7.62959368 18.9978418,7.23607309 18.8936121,6.77637187 C18.618922,5.76568933 18.3682358,4.84329294 18.1506124,4.04227961 C17.885513,3.06651914 17.679056,2.30616205 17.5364962,1.77870632 C17.5121692,1.67092076 17.4572922,1.60802696 17.3614801,1.55963046 C17.3260885,1.54175348 17.2891948,1.52793371 17.2556752,1.51764569 C17.2622206,1.56983643 17.2690521,1.6243659 17.2761478,1.68106784 C17.3467202,2.24501926 17.4172943,2.81563286 17.4831765,3.35762025 C17.4937896,3.44498918 17.4937896,3.44498918 17.504388,3.53248237 C17.6520187,4.75212532 17.7496667,5.61319469 17.7781227,5.97544099 C17.8179436,6.48614392 17.7142199,6.93423913 17.5144727,7.310364 C17.4074672,7.51185587 17.2944931,7.65565458 17.2452385,7.69841249 L16.1779803,9.00810052 L15.34566,8.3959766 L16.4535021,7.0421038 C16.4714217,7.02476182 16.5200845,6.96282152 16.5747158,6.85995045 C16.6789528,6.66367183 16.7396706,6.42847187 16.733536,6.15087802 L14.8075968,8.10443659 Z M9.10449659,8.83734175 C9.10449659,8.35466172 9.51562091,7.96367 10.0235345,7.96367 C10.5310548,7.96367 10.9419559,8.35487368 10.9419559,8.83734175 C10.9419559,9.31906211 10.5306086,9.70984204 10.0235345,9.70984204 C9.51606706,9.70984204 9.10449659,9.31927417 9.10449659,8.83734175 Z M12.2129616,7.03829278 L11.5507064,7.81552421 C11.1209799,7.48506769 10.5885251,7.30249957 10.0247676,7.30249957 C9.4597258,7.30249957 8.92673945,7.48511497 8.49783866,7.81533731 L7.83509767,7.03847968 C8.44987307,6.56514744 9.21631145,6.30254512 10.0247676,6.30254512 C10.8319291,6.30254512 11.5975862,6.56507365 12.2129616,7.03829278 Z M15.6726347,3.79663212 L14.9582327,4.53100243 C13.6232082,3.35890419 11.8785859,2.69691956 10.0241511,2.69691956 C8.16914576,2.69691956 6.42386868,3.35889553 5.08944586,4.53042286 L4.37505786,3.79604024 C5.90210339,2.45540402 7.90170172,1.69696511 10.0241511,1.69696511 C12.1460851,1.69696511 14.1450191,2.45544654 15.6726347,3.79663212 Z M6.77407616,6.14445064 L6.07408628,5.39765971 C7.15538202,4.48294761 8.54876844,3.96783293 10.0241511,3.96783293 C11.4996537,3.96783293 12.8931064,4.48303746 13.9737251,5.39776616 L13.2734836,6.14434418 C12.3836769,5.39113514 11.2386655,4.96778739 10.0241511,4.96778739 C8.80968602,4.96778739 7.66462361,5.39110028 6.77407616,6.14445064 Z" id="path-5"></path>
    </defs>
    <g id="BRUNER-DYNAMICS-Plans" stroke="none" stroke-width="1" fill="none" fill-rule="evenodd">
        <g id="Bruner-Dynamics-Desktop" transform="translate(-305.000000, -824.000000)">
            <g id="Components/desktop/package-cards/unlimited-basic" transform="translate(-10.000000, 443.000000)">
                <g id="Packages-Full-Data">
                    <g id="BG" fill="#FFFFFF">
                        <rect id="Rectangle-3" x="0" y="0" width="1600" height="707"></rect>
                    </g>
                    <g id="CONTENT" transform="translate(285.000000, 79.953544)">
                        <g id="SILVER-25" transform="translate(0.000000, 65.905516)">
                            <g id="BACKGROUND" filter="url(#filter-1)">
                                <mask id="mask-3" fill="white">
                                    <use xlink:href="#path-2"></use>
                                </mask>
                                <g id="Mask">
                                    <use fill="black" fill-opacity="1" filter="url(#filter-4)" xlink:href="#path-2"></use>
                                    <use fill="#FFFFFF" fill-rule="evenodd" xlink:href="#path-2"></use>
                                </g>
                            </g>
                            <g id="WiFi-" transform="translate(30.000000, 229.000000)">
                                <g id="Bits/Icons/Icon-built-in-wifi" transform="translate(0.000000, 3.846980)">
                                    <g id="Icon-_Placeholder">
                                        <path d="M0,0 L20,0 L20,19 L0,19 L0,0 Z" id="Bounds"></path>
                                        <g id="IconColor" transform="translate(0.000000, 1.900000)">
                                            <g>
                                                <mask id="mask-6" fill="white">
                                                    <use xlink:href="#path-5"></use>
                                                </mask>
                                                <use id="Mask" fill="#003961" fill-rule="nonzero" xlink:href="#path-5"></use>
                                                <g id="Bits/Colors/Charcoal" mask="url(#mask-6)" fill="#202E39">
                                                    <g transform="translate(0.000000, -1.900000)" id="Rectangle">
                                                        <rect x="0" y="0" width="20" height="19"></rect>
                                                    </g>
                                                </g>
                                            </g>
                                        </g>
                                    </g>
                                </g>
                            </g>
                        </g>
                    </g>
                </g>
            </g>
        </g>
    </g>
</svg>