<?xml version="1.0" encoding="UTF-8"?>
<svg width="20px" height="19px" viewBox="0 0 20 19" version="1.1" xmlns="http://www.w3.org/2000/svg" xmlns:xlink="http://www.w3.org/1999/xlink">
    <!-- Generator: Sketch 54.1 (76490) - https://sketchapp.com -->
    <title>Bits/Icons/Icon-video-streaming</title>
    <desc>Created with Sketch.</desc>
    <defs>
        <path d="M9.659,2.968655 L10.659,2.968655 L10.659,4.439255 L9.659,4.439255 L9.659,2.968655 Z M10.659,2.968655 L10.659,4.439255 L9.659,4.439255 L9.659,2.968655 L10.659,2.968655 Z M6.43001232,13.6391146 L7.14598768,12.9758954 C7.29446547,13.1205558 7.58815067,13.3527394 7.99597792,13.586871 C8.67034828,13.9740237 9.40099382,14.204305 10.159,14.204305 C11.9605004,14.204305 13.156,13.2891335 13.156,11.858755 C13.156,10.4890601 12.4486016,10.0738294 10.1245068,9.6465787 C10.0752827,9.63753531 10.0752827,9.63753531 10.0259323,9.62847799 C7.30292378,9.1286611 6.283,8.56022988 6.283,6.689805 C6.283,4.91090637 8.08799941,3.964255 10.159,3.964255 C11.2567445,3.964255 12.1608238,4.1928037 12.8789829,4.57807104 C13.3263635,4.81807512 13.6171384,5.06727689 13.7687675,5.25259484 L12.9792325,5.83561516 C12.9048616,5.74472061 12.712199,5.57960363 12.3872671,5.40528896 C11.8182387,5.10002505 11.0833805,4.914255 10.159,4.914255 C8.56683117,4.914255 7.283,5.58757408 7.283,6.689805 C7.283,7.91497193 7.93168633,8.27650243 10.2156377,8.69572897 C10.2649902,8.70478667 10.2649902,8.70478667 10.3144932,8.7138813 C13.0673853,9.21996005 14.156,9.85895823 14.156,11.858755 C14.156,13.8644283 12.4710184,15.154305 10.159,15.154305 C9.19938118,15.154305 8.29783922,14.8701613 7.47877208,14.399939 C6.99053683,14.1196456 6.63353453,13.8374042 6.43001232,13.6391146 Z M10,0.474905 C15.2463356,0.474905 19.5,4.51588615 19.5,9.499905 C19.5,14.4839238 15.2463356,18.524905 10,18.524905 C4.75366437,18.524905 0.5,14.4839238 0.5,9.499905 C0.5,4.51588615 4.75366437,0.474905 10,0.474905 Z M10,1.424905 C5.30594912,1.424905 1.5,5.04055667 1.5,9.499905 C1.5,13.9592533 5.30594912,17.574905 10,17.574905 C14.6940509,17.574905 18.5,13.9592533 18.5,9.499905 C18.5,5.04055667 14.6940509,1.424905 10,1.424905 Z M9.659,14.679305 L10.659,14.679305 L10.659,16.205005 L9.659,16.205005 L9.659,14.679305 Z M10.659,14.679305 L10.659,16.205005 L9.659,16.205005 L9.659,14.679305 L10.659,14.679305 Z" id="path-1"></path>
    </defs>
    <g id="BRUNER-DYNAMICS-Plans" stroke="none" stroke-width="1" fill="none" fill-rule="evenodd">
        <g id="Bruner-Dynamics-Desktop" transform="translate(-305.000000, -737.000000)">
            <g id="Components/desktop/package-cards/unlimited-basic" transform="translate(-10.000000, 443.000000)">
                <g id="Packages-Full-Data">
                    <g id="CONTENT" transform="translate(285.000000, 79.953544)">
                        <g id="SILVER-25" transform="translate(0.000000, 65.905516)">
                            <g id="FREEZONE" transform="translate(30.000000, 144.000000)">
                                <g id="Bits/Icons/Icon-free-zone" transform="translate(0.000000, 3.846980)">
                                    <g id="Icon-_Placeholder">
                                        <path d="M0,0 L20,0 L20,19 L0,19 L0,0 Z" id="Bounds"></path>
                                        <g id="IconColor">
                                            <mask id="mask-2" fill="white">
                                                <use xlink:href="#path-1"></use>
                                            </mask>
                                            <use id="Mask" fill="#003961" fill-rule="nonzero" xlink:href="#path-1"></use>
                                            <g id="Bits/Colors/Charcoal" mask="url(#mask-2)" fill="#202E39">
                                                <rect id="Rectangle" x="0" y="0" width="20" height="19"></rect>
                                            </g>
                                        </g>
                                    </g>
                                </g>
                            </g>
                        </g>
                    </g>
                </g>
            </g>
        </g>
    </g>
</svg>